<svg width="57" height="64" viewBox="0 0 57 64" fill="none" xmlns="http://www.w3.org/2000/svg">
<path d="M8.592 50.832H13.968V54H4.488V37.152H8.592V50.832ZM26.8935 37.152V40.44H20.0295V43.992H25.1655V47.184H20.0295V54H15.9255V37.152H26.8935Z" fill="#D9D9D9"/>
<path d="M19.6467 11.72C19.1907 10.88 18.5307 10.244 17.6667 9.812C16.8267 9.356 15.8307 9.128 14.6787 9.128C12.6867 9.128 11.0907 9.788 9.89067 11.108C8.69067 12.404 8.09067 14.144 8.09067 16.328C8.09067 18.656 8.71467 20.48 9.96267 21.8C11.2347 23.096 12.9747 23.744 15.1827 23.744C16.6947 23.744 17.9667 23.36 18.9987 22.592C20.0547 21.824 20.8227 20.72 21.3027 19.28H13.4907V14.744H26.8827V20.468C26.4267 22.004 25.6467 23.432 24.5427 24.752C23.4627 26.072 22.0827 27.14 20.4027 27.956C18.7227 28.772 16.8267 29.18 14.7147 29.18C12.2187 29.18 9.98667 28.64 8.01867 27.56C6.07467 26.456 4.55067 24.932 3.44667 22.988C2.36667 21.044 1.82667 18.824 1.82667 16.328C1.82667 13.832 2.36667 11.612 3.44667 9.668C4.55067 7.7 6.07467 6.176 8.01867 5.096C9.96267 3.992 12.1827 3.44 14.6787 3.44C17.7027 3.44 20.2467 4.172 22.3107 5.636C24.3987 7.1 25.7787 9.128 26.4507 11.72H19.6467ZM42.2445 29.252C39.8685 29.252 37.6845 28.7 35.6925 27.596C33.7245 26.492 32.1525 24.956 30.9765 22.988C29.8245 20.996 29.2485 18.764 29.2485 16.292C29.2485 13.82 29.8245 11.6 30.9765 9.632C32.1525 7.664 33.7245 6.128 35.6925 5.024C37.6845 3.92 39.8685 3.368 42.2445 3.368C44.6205 3.368 46.7925 3.92 48.7605 5.024C50.7525 6.128 52.3125 7.664 53.4405 9.632C54.5925 11.6 55.1685 13.82 55.1685 16.292C55.1685 18.764 54.5925 20.996 53.4405 22.988C52.2885 24.956 50.7285 26.492 48.7605 27.596C46.7925 28.7 44.6205 29.252 42.2445 29.252ZM42.2445 23.636C44.2605 23.636 45.8685 22.964 47.0685 21.62C48.2925 20.276 48.9045 18.5 48.9045 16.292C48.9045 14.06 48.2925 12.284 47.0685 10.964C45.8685 9.62 44.2605 8.948 42.2445 8.948C40.2045 8.948 38.5725 9.608 37.3485 10.928C36.1485 12.248 35.5485 14.036 35.5485 16.292C35.5485 18.524 36.1485 20.312 37.3485 21.656C38.5725 22.976 40.2045 23.636 42.2445 23.636Z" fill="#D9D9D9"/>
</svg>
