<svg width="39" height="39" viewBox="0 0 39 39" fill="none" xmlns="http://www.w3.org/2000/svg">
<path d="M19.5 19.5C16.8187 19.5 14.5234 18.5453 12.6141 16.6359C10.7047 14.7266 9.75 12.4313 9.75 9.75C9.75 7.06875 10.7047 4.77344 12.6141 2.86406C14.5234 0.954688 16.8187 0 19.5 0C22.1813 0 24.4766 0.954688 26.3859 2.86406C28.2953 4.77344 29.25 7.06875 29.25 9.75C29.25 12.4313 28.2953 14.7266 26.3859 16.6359C24.4766 18.5453 22.1813 19.5 19.5 19.5ZM4.875 39C3.53437 39 2.38712 38.5231 1.43325 37.5692C0.47775 36.6137 0 35.4656 0 34.125V32.175C0 30.7938 0.355876 29.5238 1.06763 28.3652C1.77775 27.2082 2.72187 26.325 3.9 25.7156C6.41875 24.4563 8.97812 23.5113 11.5781 22.8808C14.1781 22.2519 16.8187 21.9375 19.5 21.9375C22.1813 21.9375 24.8219 22.2519 27.4219 22.8808C30.0219 23.5113 32.5812 24.4563 35.1 25.7156C36.2781 26.325 37.2223 27.2082 37.9324 28.3652C38.6441 29.5238 39 30.7938 39 32.175V34.125C39 35.4656 38.5231 36.6137 37.5692 37.5692C36.6137 38.5231 35.4656 39 34.125 39H4.875Z" fill="#969696"/>
</svg>
